<svg xmlns="http://www.w3.org/2000/svg" xmlns:xlink="http://www.w3.org/1999/xlink" width="1194" zoomAndPan="magnify" viewBox="0 0 895.5 768.749972" height="1025" preserveAspectRatio="xMidYMid meet" version="1.0"><defs><clipPath id="4b4d907ae4"><path d="M 0 0.0898438 L 895 0.0898438 L 895 768.410156 L 0 768.410156 Z M 0 0.0898438 " clip-rule="nonzero"/></clipPath><clipPath id="9daff82da1"><path d="M 165.164062 139.015625 L 761.699219 139.015625 L 761.699219 653.285156 L 165.164062 653.285156 Z M 165.164062 139.015625 " clip-rule="nonzero"/></clipPath><clipPath id="859e613d59"><path d="M 189.164062 139.015625 L 737.242188 139.015625 C 743.609375 139.015625 749.714844 141.542969 754.214844 146.046875 C 758.714844 150.546875 761.242188 156.652344 761.242188 163.015625 L 761.242188 629.265625 C 761.242188 635.628906 758.714844 641.734375 754.214844 646.234375 C 749.714844 650.734375 743.609375 653.265625 737.242188 653.265625 L 189.164062 653.265625 C 182.800781 653.265625 176.695312 650.734375 172.195312 646.234375 C 167.695312 641.734375 165.164062 635.628906 165.164062 629.265625 L 165.164062 163.015625 C 165.164062 156.652344 167.695312 150.546875 172.195312 146.046875 C 176.695312 141.542969 182.800781 139.015625 189.164062 139.015625 " clip-rule="nonzero"/></clipPath><clipPath id="40f866c306"><path d="M 134.257812 115.664062 L 740.414062 115.664062 L 740.414062 629.933594 L 134.257812 629.933594 Z M 134.257812 115.664062 " clip-rule="nonzero"/></clipPath><clipPath id="210a6be05b"><path d="M 170.257812 115.664062 L 704.191406 115.664062 C 724.074219 115.664062 740.195312 131.78125 740.195312 151.664062 L 740.195312 593.914062 C 740.195312 613.796875 724.074219 629.914062 704.191406 629.914062 L 170.257812 629.914062 C 150.375 629.914062 134.257812 613.796875 134.257812 593.914062 L 134.257812 151.664062 C 134.257812 131.78125 150.375 115.664062 170.257812 115.664062 " clip-rule="nonzero"/></clipPath><clipPath id="60bfdc2b14"><path d="M 134.257812 115.664062 L 740.003906 115.664062 L 740.003906 629.589844 L 134.257812 629.589844 Z M 134.257812 115.664062 " clip-rule="nonzero"/></clipPath><clipPath id="a1900d5e5d"><path d="M 170.246094 115.664062 L 704.015625 115.664062 C 723.890625 115.664062 740.003906 131.773438 740.003906 151.644531 L 740.003906 593.613281 C 740.003906 613.480469 723.890625 629.589844 704.015625 629.589844 L 170.246094 629.589844 C 150.371094 629.589844 134.257812 613.480469 134.257812 593.613281 L 134.257812 151.644531 C 134.257812 131.773438 150.371094 115.664062 170.246094 115.664062 " clip-rule="nonzero"/></clipPath><clipPath id="fcee199c8c"><path d="M 254.011719 513 L 278 513 L 278 560 L 254.011719 560 Z M 254.011719 513 " clip-rule="nonzero"/></clipPath><clipPath id="61148a2a18"><path d="M 503 426 L 636.25 426 L 636.25 560 L 503 560 Z M 503 426 " clip-rule="nonzero"/></clipPath><clipPath id="4930a11e81"><path d="M 475.636719 422.167969 L 663.753906 422.167969 L 663.753906 573.132812 L 475.636719 573.132812 Z M 475.636719 422.167969 " clip-rule="nonzero"/></clipPath><clipPath id="828f72e443"><path d="M 569.527344 422.167969 C 517.675781 422.167969 475.636719 455.964844 475.636719 497.652344 C 475.636719 539.339844 517.675781 573.132812 569.527344 573.132812 C 621.382812 573.132812 663.417969 539.339844 663.417969 497.652344 C 663.417969 455.964844 621.382812 422.167969 569.527344 422.167969 " clip-rule="nonzero"/></clipPath><clipPath id="cea2266c2e"><path d="M 583.472656 480.015625 L 703 480.015625 L 703 588.921875 L 583.472656 588.921875 Z M 583.472656 480.015625 " clip-rule="nonzero"/></clipPath><clipPath id="390c9152d5"><path d="M 211.289062 449.949219 L 373.386719 449.949219 L 373.386719 588.613281 L 211.289062 588.613281 Z M 211.289062 449.949219 " clip-rule="nonzero"/></clipPath><clipPath id="b67018a173"><path d="M 173.546875 151.707031 L 249 151.707031 L 249 227 L 173.546875 227 Z M 173.546875 151.707031 " clip-rule="nonzero"/></clipPath><clipPath id="56d860a539"><path d="M 195 166 L 229 166 L 229 227.15625 L 195 227.15625 Z M 195 166 " clip-rule="nonzero"/></clipPath><clipPath id="4ca5664133"><path d="M 173.546875 534 L 197 534 L 197 588.597656 L 173.546875 588.597656 Z M 173.546875 534 " clip-rule="nonzero"/></clipPath><clipPath id="3e35236186"><path d="M 212 516 L 235 516 L 235 588.597656 L 212 588.597656 Z M 212 516 " clip-rule="nonzero"/></clipPath><clipPath id="e61d44fc55"><path d="M 250 498 L 274 498 L 274 588.597656 L 250 588.597656 Z M 250 498 " clip-rule="nonzero"/></clipPath><clipPath id="49fb35ff80"><path d="M 289 479 L 312.351562 479 L 312.351562 588.597656 L 289 588.597656 Z M 289 479 " clip-rule="nonzero"/></clipPath><clipPath id="444a68185a"><path d="M 174 450.507812 L 306 450.507812 L 306 520 L 174 520 Z M 174 450.507812 " clip-rule="nonzero"/></clipPath></defs><g clip-path="url(#4b4d907ae4)"><path fill="#ffffff" d="M 0 0.0898438 L 895.5 0.0898438 L 895.5 776.339844 L 0 776.339844 Z M 0 0.0898438 " fill-opacity="1" fill-rule="nonzero"/><path fill="#ffffff" d="M 0 0.0898438 L 895.5 0.0898438 L 895.5 768.839844 L 0 768.839844 Z M 0 0.0898438 " fill-opacity="1" fill-rule="nonzero"/><path fill="#f1f0ee" d="M 0 0.0898438 L 895.5 0.0898438 L 895.5 768.839844 L 0 768.839844 Z M 0 0.0898438 " fill-opacity="1" fill-rule="nonzero"/></g><g clip-path="url(#9daff82da1)"><g clip-path="url(#859e613d59)"><path fill="#121212" d="M 165.164062 139.015625 L 761.21875 139.015625 L 761.21875 653.285156 L 165.164062 653.285156 Z M 165.164062 139.015625 " fill-opacity="1" fill-rule="nonzero"/></g></g><g clip-path="url(#40f866c306)"><g clip-path="url(#210a6be05b)"><path fill="#ffffff" d="M 134.257812 115.664062 L 740.414062 115.664062 L 740.414062 629.933594 L 134.257812 629.933594 Z M 134.257812 115.664062 " fill-opacity="1" fill-rule="nonzero"/></g></g><g clip-path="url(#60bfdc2b14)"><g clip-path="url(#a1900d5e5d)"><path stroke-linecap="butt" transform="matrix(0.711583, 0, 0, 0.711359, 134.256872, 115.665326)" fill="none" stroke-linejoin="miter" d="M 50.576252 -0.00177575 L 800.691466 -0.00177575 C 828.622135 -0.00177575 851.266398 22.644139 851.266398 50.578128 L 851.266398 671.880121 C 851.266398 699.808619 828.622135 722.454534 800.691466 722.454534 L 50.576252 722.454534 C 22.645584 722.454534 0.00132108 699.808619 0.00132108 671.880121 L 0.00132108 50.578128 C 0.00132108 22.644139 22.645584 -0.00177575 50.576252 -0.00177575 " stroke="#000000" stroke-width="21.073172" stroke-opacity="1" stroke-miterlimit="4"/></g></g><path fill="#000000" d="M 336.1875 492.78125 L 315.019531 492.78125 C 314.398438 492.78125 313.777344 493.402344 313.777344 494.023438 L 313.777344 558.140625 C 313.777344 558.765625 314.398438 559.386719 315.019531 559.386719 L 336.1875 559.386719 C 336.808594 559.386719 337.433594 558.765625 337.433594 558.140625 L 337.433594 494.023438 C 337.433594 493.402344 336.808594 492.78125 336.1875 492.78125 Z M 336.1875 492.78125 " fill-opacity="1" fill-rule="nonzero"/><path fill="#000000" d="M 366.070312 454.808594 L 344.902344 454.808594 C 344.28125 454.808594 343.65625 455.429688 343.65625 456.050781 L 343.65625 557.519531 C 343.65625 558.140625 344.28125 558.765625 344.902344 558.765625 L 366.070312 558.765625 C 366.691406 558.765625 367.316406 558.140625 367.316406 557.519531 L 367.316406 456.675781 C 367.316406 455.429688 366.691406 454.808594 366.070312 454.808594 Z M 366.070312 454.808594 " fill-opacity="1" fill-rule="nonzero"/><path fill="#000000" d="M 306.304688 475.347656 L 285.140625 475.347656 C 284.515625 475.347656 283.894531 475.972656 283.894531 476.59375 L 283.894531 558.140625 C 283.894531 558.765625 284.515625 559.386719 285.140625 559.386719 L 306.304688 559.386719 C 306.929688 559.386719 307.550781 558.765625 307.550781 558.140625 L 307.550781 476.59375 C 307.550781 475.972656 306.929688 475.347656 306.304688 475.347656 Z M 306.304688 475.347656 " fill-opacity="1" fill-rule="nonzero"/><g clip-path="url(#fcee199c8c)"><path fill="#000000" d="M 276.421875 513.945312 L 255.257812 513.945312 C 254.636719 513.945312 254.011719 514.566406 254.011719 515.191406 L 254.011719 558.140625 C 254.011719 558.765625 254.636719 559.386719 255.257812 559.386719 L 276.421875 559.386719 C 277.046875 559.386719 277.667969 558.765625 277.667969 558.140625 L 277.667969 515.191406 C 277.667969 514.566406 277.046875 513.945312 276.421875 513.945312 Z M 276.421875 513.945312 " fill-opacity="1" fill-rule="nonzero"/></g><path fill="#000000" d="M 331.207031 309.140625 C 331.207031 306.652344 330.585938 304.164062 330.585938 301.050781 C 330.585938 239.421875 380.386719 189 442.640625 189 C 485.597656 189 523.570312 213.277344 541.625 249.382812 L 555.945312 229.460938 C 532.910156 192.113281 490.578125 167.210938 442.640625 167.210938 C 368.558594 167.210938 308.796875 227.59375 308.796875 301.671875 C 308.796875 315.988281 311.285156 329.683594 315.019531 342.757812 Z M 331.207031 309.140625 " fill-opacity="1" fill-rule="nonzero"/><path fill="#000000" d="M 474.390625 448.582031 L 463.808594 448.582031 L 463.808594 434.265625 C 527.929688 424.304688 577.109375 368.902344 577.109375 301.671875 C 577.109375 285.488281 573.996094 269.925781 569.015625 255.609375 L 552.207031 278.640625 C 553.453125 286.109375 554.699219 293.578125 554.699219 301.671875 C 554.699219 363.300781 504.894531 413.722656 442.640625 413.722656 C 397.195312 413.722656 357.976562 386.332031 340.546875 347.113281 L 328.09375 372.015625 C 348.015625 405.007812 382.253906 428.039062 421.476562 434.265625 L 421.476562 448.582031 L 410.890625 448.582031 C 406.535156 448.582031 402.800781 452.316406 402.800781 456.675781 C 402.800781 461.03125 406.535156 464.765625 410.890625 464.765625 L 414.628906 464.765625 L 414.628906 550.050781 C 414.628906 558.765625 421.476562 565.613281 430.191406 565.613281 L 453.847656 565.613281 C 462.5625 565.613281 469.410156 558.765625 469.410156 550.050781 L 469.410156 464.765625 L 473.144531 464.765625 C 477.503906 464.765625 481.238281 461.03125 481.238281 456.675781 C 482.484375 452.316406 478.75 448.582031 474.390625 448.582031 Z M 474.390625 448.582031 " fill-opacity="1" fill-rule="nonzero"/><path fill="#000000" d="M 573.996094 441.734375 L 573.996094 485.308594 L 604.503906 454.808594 C 595.785156 447.335938 585.203125 442.980469 573.996094 441.734375 Z M 573.996094 441.734375 " fill-opacity="1" fill-rule="nonzero"/><path fill="#000000" d="M 565.28125 441.734375 C 540.378906 443.601562 520.460938 463.523438 518.589844 488.421875 L 565.28125 488.421875 Z M 565.28125 441.734375 " fill-opacity="1" fill-rule="nonzero"/><path fill="#000000" d="M 610.105469 461.03125 L 573.996094 497.136719 L 518.59375 497.136719 C 520.460938 523.28125 542.871094 543.824219 569.640625 543.824219 C 597.65625 543.824219 620.6875 520.792969 620.6875 492.78125 C 620.6875 480.953125 616.953125 469.746094 610.105469 461.03125 Z M 610.105469 461.03125 " fill-opacity="1" fill-rule="nonzero"/><g clip-path="url(#61148a2a18)"><path fill="#000000" d="M 569.640625 426.171875 C 532.910156 426.171875 503.027344 456.050781 503.027344 492.78125 C 503.027344 529.507812 532.910156 559.386719 569.640625 559.386719 C 606.371094 559.386719 636.25 529.507812 636.25 492.78125 C 636.25 456.050781 606.371094 426.171875 569.640625 426.171875 Z M 569.640625 553.785156 C 536.023438 553.785156 508.632812 526.394531 508.632812 492.78125 C 508.632812 459.164062 536.023438 431.773438 569.640625 431.773438 C 603.257812 431.773438 630.648438 459.164062 630.648438 492.78125 C 630.648438 526.394531 603.257812 553.785156 569.640625 553.785156 Z M 569.640625 553.785156 " fill-opacity="1" fill-rule="nonzero"/></g><path fill="#000000" d="M 291.988281 431.152344 L 362.335938 289.222656 L 410.890625 360.1875 C 412.136719 362.054688 414.628906 363.300781 417.117188 362.675781 C 419.609375 362.054688 421.476562 360.808594 422.097656 358.320312 L 458.828125 252.496094 L 502.40625 322.835938 C 503.652344 324.703125 505.519531 325.949219 507.386719 325.949219 C 509.875 325.949219 511.742188 324.703125 512.367188 323.460938 L 590.183594 215.769531 L 605.125 226.972656 C 606.992188 228.21875 609.484375 226.972656 609.484375 225.105469 L 610.726562 182.773438 C 610.726562 180.90625 608.859375 179.664062 606.992188 180.285156 L 566.527344 193.980469 C 564.660156 194.601562 564.039062 197.714844 565.90625 198.960938 L 580.222656 209.542969 L 508.007812 309.140625 L 461.941406 235.6875 C 460.695312 233.820312 458.207031 232.574219 455.714844 232.574219 C 453.226562 233.199219 451.359375 234.441406 450.734375 236.933594 L 414.003906 342.757812 L 366.691406 273.039062 C 365.445312 271.171875 363.578125 269.925781 361.089844 270.546875 C 358.597656 270.546875 356.730469 271.792969 356.109375 274.28125 L 280.78125 425.550781 C 279.535156 428.664062 280.78125 432.398438 283.894531 433.640625 C 287.007812 435.507812 290.742188 434.265625 291.988281 431.152344 Z M 291.988281 431.152344 " fill-opacity="1" fill-rule="nonzero"/><g clip-path="url(#4930a11e81)"><g clip-path="url(#828f72e443)"><path fill="#ffffff" d="M 475.636719 422.167969 L 663.164062 422.167969 L 663.164062 573.132812 L 475.636719 573.132812 Z M 475.636719 422.167969 " fill-opacity="1" fill-rule="nonzero"/></g></g><g clip-path="url(#cea2266c2e)"><path fill="#20d63d" d="M 661.453125 565.015625 L 649.992188 579.976562 C 648.949219 581.335938 649.132812 583.257812 650.398438 584.410156 L 654.339844 588 C 655.042969 588.640625 655.890625 588.929688 656.835938 588.84375 C 657.785156 588.757812 658.5625 588.320312 659.144531 587.566406 L 671.855469 571.042969 Z M 598.566406 526.621094 L 586.894531 526.621094 C 585.023438 526.621094 583.515625 525.085938 583.519531 523.214844 C 583.523438 521.339844 585.042969 519.824219 586.910156 519.824219 L 598.585938 519.824219 C 600.453125 519.824219 601.964844 521.355469 601.960938 523.226562 C 601.957031 525.105469 600.433594 526.621094 598.566406 526.621094 Z M 612.425781 495.75 L 606.589844 485.597656 C 605.65625 483.976562 606.203125 481.894531 607.816406 480.953125 C 609.429688 480.011719 611.507812 480.558594 612.441406 482.183594 L 618.277344 492.335938 C 619.210938 493.960938 618.664062 496.042969 617.050781 496.984375 C 615.4375 497.921875 613.359375 497.375 612.425781 495.75 Z M 598.917969 507.914062 L 589.332031 502.355469 C 587.707031 501.410156 587.148438 499.324219 588.089844 497.6875 C 589.027344 496.054688 591.109375 495.496094 592.734375 496.4375 L 602.320312 501.996094 C 603.949219 502.9375 604.503906 505.027344 603.566406 506.664062 C 602.625 508.296875 600.546875 508.855469 598.917969 507.914062 Z M 613.996094 523.203125 L 602.6875 542.867188 C 600.566406 546.558594 601.835938 551.324219 605.511719 553.457031 C 608.945312 555.445312 613.304688 554.464844 615.597656 551.324219 C 628.113281 549.414062 644.414062 551.46875 660.625 557.8125 L 676.207031 530.707031 C 662.625 519.796875 652.671875 506.714844 648.066406 494.878906 L 648.0625 494.875 C 649.683594 491.296875 648.351562 486.964844 644.894531 484.960938 C 641.21875 482.828125 636.472656 484.105469 634.351562 487.796875 L 623.046875 507.460938 C 622.722656 507.210938 622.382812 506.980469 622.019531 506.769531 C 617.652344 504.238281 612.066406 505.738281 609.542969 510.125 C 607.019531 514.515625 608.515625 520.125 612.886719 522.65625 C 613.246094 522.867188 613.617188 523.046875 613.996094 523.203125 Z M 664.542969 560.679688 L 680.871094 532.277344 L 693.855469 539.804688 C 701.742188 544.378906 704.46875 554.601562 699.914062 562.519531 L 699.914062 562.523438 C 695.363281 570.441406 685.183594 573.179688 677.292969 568.609375 L 664.3125 561.082031 Z M 664.542969 560.679688 " fill-opacity="1" fill-rule="evenodd"/></g><g clip-path="url(#390c9152d5)"><path fill="#ffffff" d="M 211.289062 449.949219 L 373.167969 449.949219 L 373.167969 588.460938 L 211.289062 588.460938 Z M 211.289062 449.949219 " fill-opacity="1" fill-rule="nonzero"/></g><g clip-path="url(#b67018a173)"><path fill="#1877f2" d="M 249 189.429688 C 249 168.597656 232.109375 151.707031 211.273438 151.707031 C 190.4375 151.707031 173.546875 168.597656 173.546875 189.429688 C 173.546875 208.261719 187.34375 223.867188 205.378906 226.699219 L 205.378906 200.335938 L 195.800781 200.335938 L 195.800781 189.429688 L 205.378906 189.429688 L 205.378906 181.121094 C 205.378906 171.664062 211.011719 166.441406 219.628906 166.441406 C 223.757812 166.441406 228.074219 167.179688 228.074219 167.179688 L 228.074219 176.464844 L 223.316406 176.464844 C 218.628906 176.464844 217.167969 179.371094 217.167969 182.355469 L 217.167969 189.429688 L 227.632812 189.429688 L 225.957031 200.335938 L 217.167969 200.335938 L 217.167969 226.699219 C 235.203125 223.867188 249 208.261719 249 189.429688 " fill-opacity="1" fill-rule="nonzero"/></g><g clip-path="url(#56d860a539)"><path fill="#ffffff" d="M 225.957031 200.335938 L 227.632812 189.429688 L 217.167969 189.429688 L 217.167969 182.355469 C 217.167969 179.371094 218.628906 176.464844 223.316406 176.464844 L 228.074219 176.464844 L 228.074219 167.179688 C 228.074219 167.179688 223.757812 166.441406 219.628906 166.441406 C 211.011719 166.441406 205.378906 171.664062 205.378906 181.121094 L 205.378906 189.429688 L 195.800781 189.429688 L 195.800781 200.335938 L 205.378906 200.335938 L 205.378906 226.699219 C 207.300781 227 209.269531 227.15625 211.273438 227.15625 C 213.277344 227.15625 215.246094 227 217.167969 226.699219 L 217.167969 200.335938 L 225.957031 200.335938 " fill-opacity="1" fill-rule="nonzero"/></g><g clip-path="url(#4ca5664133)"><path fill="#eb745e" d="M 176.390625 534.316406 L 193.460938 534.316406 C 195.015625 534.316406 196.28125 535.578125 196.28125 537.132812 L 196.28125 585.800781 C 196.28125 587.351562 195.015625 588.617188 193.460938 588.617188 L 176.390625 588.617188 C 174.835938 588.617188 173.570312 587.351562 173.570312 585.800781 L 173.570312 537.132812 C 173.570312 535.578125 174.835938 534.316406 176.390625 534.316406 Z M 176.390625 534.316406 " fill-opacity="1" fill-rule="evenodd"/></g><g clip-path="url(#3e35236186)"><path fill="#ffd54f" d="M 215.070312 516.195312 C 220.761719 516.195312 226.453125 516.195312 232.144531 516.195312 C 233.695312 516.195312 234.964844 517.460938 234.964844 519.011719 C 234.964844 541.273438 234.964844 563.539062 234.964844 585.800781 C 234.964844 587.351562 233.695312 588.617188 232.144531 588.617188 C 226.453125 588.617188 220.761719 588.617188 215.070312 588.617188 C 213.519531 588.617188 212.25 587.351562 212.25 585.800781 C 212.25 563.539062 212.25 541.273438 212.25 519.011719 C 212.25 517.460938 213.519531 516.195312 215.070312 516.195312 Z M 215.070312 516.195312 " fill-opacity="1" fill-rule="evenodd"/></g><g clip-path="url(#e61d44fc55)"><path fill="#a2e19f" d="M 253.753906 498.078125 C 259.445312 498.078125 265.136719 498.078125 270.824219 498.078125 C 272.378906 498.078125 273.644531 499.339844 273.644531 500.894531 C 273.644531 529.195312 273.644531 557.496094 273.644531 585.800781 C 273.644531 587.351562 272.378906 588.617188 270.824219 588.617188 C 265.136719 588.617188 259.445312 588.617188 253.753906 588.617188 C 252.199219 588.617188 250.933594 587.351562 250.933594 585.800781 C 250.933594 557.496094 250.933594 529.195312 250.933594 500.894531 C 250.933594 499.339844 252.199219 498.078125 253.753906 498.078125 Z M 253.753906 498.078125 " fill-opacity="1" fill-rule="evenodd"/></g><g clip-path="url(#49fb35ff80)"><path fill="#92d2fe" d="M 292.4375 479.957031 L 309.507812 479.957031 C 311.0625 479.957031 312.328125 481.222656 312.328125 482.773438 L 312.328125 585.800781 C 312.328125 587.351562 311.0625 588.617188 309.507812 588.617188 L 292.4375 588.617188 C 290.882812 588.617188 289.617188 587.351562 289.617188 585.800781 L 289.617188 482.773438 C 289.617188 481.222656 290.882812 479.957031 292.4375 479.957031 Z M 292.4375 479.957031 " fill-opacity="1" fill-rule="evenodd"/></g><g clip-path="url(#444a68185a)"><path fill="#515151" d="M 290.265625 456.195312 C 288.714844 456.203125 287.453125 454.949219 287.445312 453.402344 C 287.441406 451.851562 288.691406 450.589844 290.246094 450.585938 L 302.792969 450.519531 C 304.347656 450.511719 305.609375 451.765625 305.613281 453.3125 L 305.679688 465.847656 C 305.6875 467.394531 304.433594 468.65625 302.882812 468.664062 C 301.332031 468.667969 300.070312 467.417969 300.0625 465.867188 L 300.035156 460.546875 C 288.519531 472.140625 270.65625 483.445312 251.746094 493.035156 C 223.800781 507.210938 193.371094 517.734375 177.890625 519.867188 C 176.347656 520.070312 174.933594 518.992188 174.726562 517.457031 C 174.519531 515.917969 175.601562 514.503906 177.140625 514.296875 C 192.105469 512.238281 221.777344 501.933594 249.210938 488.019531 C 267.914062 478.53125 285.488281 467.410156 296.472656 456.164062 Z M 290.265625 456.195312 " fill-opacity="1" fill-rule="evenodd"/></g></svg>